<svg width="107" height="15" viewBox="0 0 107 15" fill="none" xmlns="http://www.w3.org/2000/svg">
<path d="M0.958807 12V3.27273H4.0696C4.74858 3.27273 5.31108 3.39631 5.7571 3.64347C6.20313 3.89062 6.53693 4.22869 6.75852 4.65767C6.98011 5.08381 7.09091 5.56392 7.09091 6.09801C7.09091 6.63494 6.97869 7.1179 6.75426 7.54688C6.53267 7.97301 6.19744 8.31108 5.74858 8.56108C5.30256 8.80824 4.74148 8.93182 4.06534 8.93182H1.92614V7.81534H3.94602C4.375 7.81534 4.72301 7.74148 4.99006 7.59375C5.2571 7.44318 5.45312 7.23864 5.57812 6.98011C5.70312 6.72159 5.76562 6.42756 5.76562 6.09801C5.76562 5.76847 5.70312 5.47585 5.57812 5.22017C5.45312 4.96449 5.25568 4.7642 4.9858 4.61932C4.71875 4.47443 4.36648 4.40199 3.92898 4.40199H2.27557V12H0.958807ZM8.53232 12V5.45455H9.76385V6.49432H9.83203C9.95135 6.14205 10.1616 5.86506 10.4627 5.66335C10.7667 5.45881 11.1104 5.35653 11.494 5.35653C11.5735 5.35653 11.6673 5.35937 11.7752 5.36506C11.886 5.37074 11.9727 5.37784 12.0352 5.38636V6.60511C11.984 6.59091 11.8931 6.57528 11.7624 6.55824C11.6317 6.53835 11.5011 6.52841 11.3704 6.52841C11.0692 6.52841 10.8008 6.59233 10.565 6.72017C10.332 6.84517 10.1474 7.01989 10.011 7.24432C9.87464 7.46591 9.80646 7.71875 9.80646 8.00284V12H8.53232ZM15.6605 12.1321C15.0469 12.1321 14.5114 11.9915 14.054 11.7102C13.5966 11.429 13.2415 11.0355 12.9886 10.5298C12.7358 10.0241 12.6094 9.43324 12.6094 8.7571C12.6094 8.07812 12.7358 7.48437 12.9886 6.97585C13.2415 6.46733 13.5966 6.07244 14.054 5.79119C14.5114 5.50994 15.0469 5.36932 15.6605 5.36932C16.2741 5.36932 16.8097 5.50994 17.267 5.79119C17.7244 6.07244 18.0795 6.46733 18.3324 6.97585C18.5852 7.48437 18.7116 8.07812 18.7116 8.7571C18.7116 9.43324 18.5852 10.0241 18.3324 10.5298C18.0795 11.0355 17.7244 11.429 17.267 11.7102C16.8097 11.9915 16.2741 12.1321 15.6605 12.1321ZM15.6648 11.0625C16.0625 11.0625 16.392 10.9574 16.6534 10.7472C16.9148 10.5369 17.108 10.2571 17.233 9.90767C17.3608 9.55824 17.4247 9.1733 17.4247 8.75284C17.4247 8.33523 17.3608 7.9517 17.233 7.60227C17.108 7.25 16.9148 6.96733 16.6534 6.75426C16.392 6.54119 16.0625 6.43466 15.6648 6.43466C15.2642 6.43466 14.9318 6.54119 14.6676 6.75426C14.4063 6.96733 14.2116 7.25 14.0838 7.60227C13.9588 7.9517 13.8963 8.33523 13.8963 8.75284C13.8963 9.1733 13.9588 9.55824 14.0838 9.90767C14.2116 10.2571 14.4063 10.5369 14.6676 10.7472C14.9318 10.9574 15.2642 11.0625 15.6648 11.0625ZM20.1339 5.45455H21.408V12.4261C21.408 12.8636 21.3285 13.233 21.1694 13.5341C21.0131 13.8352 20.7802 14.0639 20.4705 14.2202C20.1637 14.3764 19.7844 14.4545 19.3327 14.4545C19.2873 14.4545 19.2447 14.4545 19.2049 14.4545C19.1623 14.4545 19.1183 14.4531 19.0728 14.4503V13.3551C19.1126 13.3551 19.1481 13.3551 19.1793 13.3551C19.2077 13.3551 19.2404 13.3551 19.2773 13.3551C19.5785 13.3551 19.7958 13.2741 19.9293 13.1122C20.0657 12.9531 20.1339 12.7216 20.1339 12.4176V5.45455ZM20.7646 4.4446C20.543 4.4446 20.3526 4.37074 20.1935 4.22301C20.0373 4.07244 19.9592 3.89347 19.9592 3.68608C19.9592 3.47585 20.0373 3.29687 20.1935 3.14915C20.3526 2.99858 20.543 2.9233 20.7646 2.9233C20.9862 2.9233 21.1751 2.99858 21.3313 3.14915C21.4904 3.29687 21.57 3.47585 21.57 3.68608C21.57 3.89347 21.4904 4.07244 21.3313 4.22301C21.1751 4.37074 20.9862 4.4446 20.7646 4.4446ZM25.9432 12.1321C25.2983 12.1321 24.7429 11.9943 24.277 11.7188C23.8139 11.4403 23.456 11.0497 23.2031 10.5469C22.9531 10.0412 22.8281 9.44886 22.8281 8.76989C22.8281 8.09943 22.9531 7.50852 23.2031 6.99716C23.456 6.4858 23.8082 6.08665 24.2599 5.79972C24.7145 5.51278 25.2457 5.36932 25.8537 5.36932C26.223 5.36932 26.581 5.4304 26.9276 5.55256C27.2741 5.67472 27.5852 5.86648 27.8608 6.12784C28.1364 6.3892 28.3537 6.72869 28.5128 7.14631C28.6719 7.56108 28.7514 8.06534 28.7514 8.65909V9.1108H23.5483V8.15625H27.5028C27.5028 7.82102 27.4347 7.52415 27.2983 7.26562C27.1619 7.00426 26.9702 6.7983 26.723 6.64773C26.4787 6.49716 26.1918 6.42188 25.8622 6.42188C25.5043 6.42188 25.1918 6.50994 24.9247 6.68608C24.6605 6.85937 24.456 7.08665 24.3111 7.3679C24.169 7.64631 24.098 7.94886 24.098 8.27557V9.02131C24.098 9.45881 24.1747 9.83097 24.3281 10.1378C24.4844 10.4446 24.7017 10.679 24.9801 10.8409C25.2585 11 25.5838 11.0795 25.956 11.0795C26.1974 11.0795 26.4176 11.0455 26.6165 10.9773C26.8153 10.9062 26.9872 10.8011 27.1321 10.6619C27.277 10.5227 27.3878 10.3509 27.4645 10.1463L28.6705 10.3636C28.5739 10.7187 28.4006 11.0298 28.1506 11.2969C27.9034 11.5611 27.5923 11.767 27.2173 11.9148C26.8452 12.0597 26.4205 12.1321 25.9432 12.1321ZM32.9222 12.1321C32.2887 12.1321 31.7433 11.9886 31.2859 11.7017C30.8313 11.4119 30.4819 11.0128 30.2376 10.5043C29.9933 9.99574 29.8711 9.41335 29.8711 8.7571C29.8711 8.09233 29.9961 7.50568 30.2461 6.99716C30.4961 6.4858 30.8484 6.08665 31.3029 5.79972C31.7575 5.51278 32.293 5.36932 32.9094 5.36932C33.4066 5.36932 33.8498 5.46165 34.239 5.64631C34.6282 5.82812 34.9421 6.08381 35.1808 6.41335C35.4222 6.7429 35.5657 7.12784 35.6112 7.56818H34.3711C34.3029 7.26136 34.1467 6.99716 33.9023 6.77557C33.6609 6.55398 33.337 6.44318 32.9308 6.44318C32.5756 6.44318 32.2646 6.53693 31.9975 6.72443C31.7333 6.90909 31.5273 7.1733 31.3796 7.51705C31.2319 7.85795 31.158 8.26136 31.158 8.72727C31.158 9.20455 31.2305 9.61648 31.3754 9.96307C31.5202 10.3097 31.7248 10.5781 31.989 10.7685C32.256 10.9588 32.57 11.054 32.9308 11.054C33.1722 11.054 33.391 11.0099 33.587 10.9219C33.7859 10.831 33.9521 10.7017 34.0856 10.5341C34.2219 10.3665 34.3171 10.1648 34.3711 9.92898H35.6112C35.5657 10.3523 35.4279 10.7301 35.1978 11.0625C34.9677 11.3949 34.6594 11.6562 34.2731 11.8466C33.8896 12.0369 33.4393 12.1321 32.9222 12.1321ZM40.0291 5.45455V6.47727H36.4538V5.45455H40.0291ZM37.4126 3.88636H38.6868V10.0781C38.6868 10.3253 38.7237 10.5114 38.7976 10.6364C38.8714 10.7585 38.9666 10.8423 39.0831 10.8878C39.2024 10.9304 39.3317 10.9517 39.4709 10.9517C39.5732 10.9517 39.6626 10.9446 39.7393 10.9304C39.8161 10.9162 39.8757 10.9048 39.9183 10.8963L40.1484 11.9489C40.0746 11.9773 39.9695 12.0057 39.8331 12.0341C39.6967 12.0653 39.5263 12.0824 39.3217 12.0852C38.9865 12.0909 38.674 12.0312 38.3842 11.9062C38.0945 11.7812 37.8601 11.5881 37.6811 11.3267C37.5021 11.0653 37.4126 10.7372 37.4126 10.3423V3.88636Z" fill="white"/>
<mask id="mask0_44_15" style="mask-type:alpha" maskUnits="userSpaceOnUse" x="44" y="3" width="62" height="12">
<path d="M49.6037 5.67188C49.5639 5.29972 49.3963 5.00994 49.1009 4.80256C48.8082 4.59517 48.4276 4.49148 47.9588 4.49148C47.6293 4.49148 47.3466 4.54119 47.1108 4.64062C46.875 4.74006 46.6946 4.875 46.5696 5.04545C46.4446 5.21591 46.3807 5.41051 46.3778 5.62926C46.3778 5.81108 46.419 5.96875 46.5014 6.10227C46.5866 6.2358 46.7017 6.34943 46.8466 6.44318C46.9915 6.53409 47.152 6.6108 47.3281 6.6733C47.5043 6.7358 47.6818 6.78835 47.8608 6.83097L48.679 7.03551C49.0085 7.11222 49.3253 7.21591 49.6293 7.34659C49.9361 7.47727 50.2102 7.64205 50.4517 7.84091C50.696 8.03977 50.8892 8.27983 51.0312 8.56108C51.1733 8.84233 51.2443 9.17187 51.2443 9.54972C51.2443 10.0611 51.1136 10.5114 50.8523 10.9006C50.5909 11.2869 50.2131 11.5895 49.7188 11.8082C49.2273 12.0241 48.6321 12.1321 47.9332 12.1321C47.2543 12.1321 46.6648 12.027 46.1648 11.8168C45.6676 11.6065 45.2784 11.2997 44.9972 10.8963C44.7188 10.4929 44.5682 10.0014 44.5455 9.42188H46.1009C46.1236 9.72585 46.2173 9.97869 46.3821 10.1804C46.5469 10.3821 46.7614 10.5327 47.0256 10.6321C47.2926 10.7315 47.5909 10.7812 47.9205 10.7812C48.2642 10.7812 48.5653 10.7301 48.8239 10.6278C49.0852 10.5227 49.2898 10.3778 49.4375 10.1932C49.5852 10.0057 49.6605 9.78693 49.6634 9.53693C49.6605 9.30966 49.5938 9.12216 49.4631 8.97443C49.3324 8.82386 49.1491 8.69886 48.9134 8.59943C48.6804 8.49716 48.4077 8.40625 48.0952 8.3267L47.1023 8.07102C46.3835 7.88636 45.8153 7.60653 45.3977 7.23153C44.983 6.85369 44.7756 6.35227 44.7756 5.72727C44.7756 5.21307 44.9148 4.76278 45.1932 4.37642C45.4744 3.99006 45.8565 3.69034 46.3395 3.47727C46.8224 3.26136 47.3693 3.15341 47.9801 3.15341C48.5994 3.15341 49.142 3.26136 49.608 3.47727C50.0767 3.69034 50.4446 3.98722 50.7116 4.3679C50.9787 4.74574 51.1165 5.1804 51.125 5.67188H49.6037ZM56.7575 9.24716V5.45455H58.3001V12H56.8043V10.8366H56.7362C56.5884 11.2031 56.3455 11.5028 56.0075 11.7358C55.6722 11.9687 55.2589 12.0852 54.7674 12.0852C54.3384 12.0852 53.9592 11.9901 53.6296 11.7997C53.3029 11.6065 53.0472 11.3267 52.8626 10.9602C52.6779 10.5909 52.5856 10.1449 52.5856 9.62216V5.45455H54.1282V9.38352C54.1282 9.7983 54.2418 10.1278 54.4691 10.3722C54.6964 10.6165 54.9947 10.7386 55.364 10.7386C55.5913 10.7386 55.8114 10.6832 56.0245 10.5724C56.2376 10.4616 56.4123 10.2969 56.5487 10.0781C56.6879 9.85653 56.7575 9.57955 56.7575 9.24716ZM59.8864 14.4545V5.45455H61.4034V6.53693H61.4929C61.5724 6.37784 61.6847 6.20881 61.8295 6.02983C61.9744 5.84801 62.1705 5.69318 62.4176 5.56534C62.6648 5.43466 62.9801 5.36932 63.3636 5.36932C63.8693 5.36932 64.3253 5.49858 64.7315 5.7571C65.1406 6.01278 65.4645 6.39205 65.7031 6.89489C65.9446 7.39489 66.0653 8.00852 66.0653 8.7358C66.0653 9.45455 65.9474 10.0653 65.7116 10.5682C65.4759 11.071 65.1548 11.4545 64.7486 11.7188C64.3423 11.983 63.8821 12.1151 63.3679 12.1151C62.9929 12.1151 62.6818 12.0526 62.4347 11.9276C62.1875 11.8026 61.9886 11.652 61.8381 11.4759C61.6903 11.2969 61.5753 11.1278 61.4929 10.9688H61.429V14.4545H59.8864ZM61.3991 8.72727C61.3991 9.15057 61.4588 9.52131 61.5781 9.83949C61.7003 10.1577 61.875 10.4062 62.1023 10.5852C62.3324 10.7614 62.6108 10.8494 62.9375 10.8494C63.2784 10.8494 63.5639 10.7585 63.794 10.5767C64.0241 10.392 64.1974 10.1406 64.3139 9.82244C64.4332 9.50142 64.4929 9.13636 64.4929 8.72727C64.4929 8.32102 64.4347 7.96023 64.3182 7.64489C64.2017 7.32955 64.0284 7.08239 63.7983 6.90341C63.5682 6.72443 63.2812 6.63494 62.9375 6.63494C62.608 6.63494 62.3281 6.72159 62.098 6.89489C61.8679 7.06818 61.6932 7.31108 61.5739 7.62358C61.4574 7.93608 61.3991 8.30398 61.3991 8.72727ZM70.2841 12.1278C69.6278 12.1278 69.0611 11.9915 68.5838 11.7188C68.1094 11.4432 67.7443 11.054 67.4886 10.5511C67.233 10.0455 67.1051 9.45028 67.1051 8.76562C67.1051 8.09233 67.233 7.50142 67.4886 6.9929C67.7472 6.48153 68.108 6.08381 68.571 5.79972C69.0341 5.51278 69.5781 5.36932 70.2031 5.36932C70.6065 5.36932 70.9872 5.43466 71.3452 5.56534C71.706 5.69318 72.0241 5.89205 72.2997 6.16193C72.5781 6.43182 72.7969 6.77557 72.956 7.19318C73.1151 7.60795 73.1946 8.10227 73.1946 8.67614V9.14915H67.8295V8.10938H71.7159C71.7131 7.81392 71.6491 7.55114 71.5241 7.32102C71.3991 7.08807 71.2244 6.90483 71 6.77131C70.7784 6.63778 70.5199 6.57102 70.2244 6.57102C69.9091 6.57102 69.6321 6.64773 69.3935 6.80114C69.1548 6.9517 68.9688 7.15057 68.8352 7.39773C68.7045 7.64205 68.6378 7.91051 68.6349 8.20312V9.1108C68.6349 9.49148 68.7045 9.81818 68.8438 10.0909C68.983 10.3608 69.1776 10.5682 69.4276 10.7131C69.6776 10.8551 69.9702 10.9261 70.3054 10.9261C70.5298 10.9261 70.733 10.8949 70.9148 10.8324C71.0966 10.767 71.2543 10.6719 71.3878 10.5469C71.5213 10.4219 71.6222 10.267 71.6903 10.0824L73.1307 10.2443C73.0398 10.625 72.8665 10.9574 72.6108 11.2415C72.358 11.5227 72.0341 11.7415 71.6392 11.8977C71.2443 12.0511 70.7926 12.1278 70.2841 12.1278ZM74.4996 12V5.45455H75.9954V6.54545H76.0636C76.1829 6.16761 76.3874 5.87642 76.6772 5.67188C76.9698 5.46449 77.3036 5.3608 77.6786 5.3608C77.7638 5.3608 77.859 5.36506 77.9641 5.37358C78.0721 5.37926 78.1616 5.3892 78.2326 5.40341V6.82244C78.1673 6.79972 78.0636 6.77983 77.9215 6.76278C77.7823 6.7429 77.6474 6.73295 77.5167 6.73295C77.2354 6.73295 76.9826 6.79403 76.7582 6.91619C76.5366 7.03551 76.3619 7.2017 76.234 7.41477C76.1062 7.62784 76.0423 7.87358 76.0423 8.15199V12H74.4996ZM80.8001 8.16477V12H79.2575V5.45455H80.7319V6.56676H80.8086C80.9592 6.20028 81.1992 5.90909 81.5288 5.69318C81.8612 5.47727 82.2717 5.36932 82.7603 5.36932C83.212 5.36932 83.6055 5.46591 83.9407 5.65909C84.2788 5.85227 84.5401 6.1321 84.7248 6.49858C84.9123 6.86506 85.0046 7.30966 85.0018 7.83239V12H83.4592V8.07102C83.4592 7.63352 83.3455 7.29119 83.1183 7.04403C82.8938 6.79687 82.5827 6.6733 82.185 6.6733C81.9151 6.6733 81.6751 6.73295 81.4648 6.85227C81.2575 6.96875 81.0941 7.13778 80.9748 7.35938C80.8583 7.58097 80.8001 7.84943 80.8001 8.16477ZM89.4251 12.1278C88.7859 12.1278 88.2319 11.9872 87.7631 11.706C87.2944 11.4247 86.9308 11.0312 86.6722 10.5256C86.4165 10.0199 86.2887 9.42898 86.2887 8.75284C86.2887 8.0767 86.4165 7.48437 86.6722 6.97585C86.9308 6.46733 87.2944 6.07244 87.7631 5.79119C88.2319 5.50994 88.7859 5.36932 89.4251 5.36932C90.0643 5.36932 90.6183 5.50994 91.087 5.79119C91.5558 6.07244 91.918 6.46733 92.1737 6.97585C92.4322 7.48437 92.5614 8.0767 92.5614 8.75284C92.5614 9.42898 92.4322 10.0199 92.1737 10.5256C91.918 11.0312 91.5558 11.4247 91.087 11.706C90.6183 11.9872 90.0643 12.1278 89.4251 12.1278ZM89.4336 10.892C89.7802 10.892 90.07 10.7969 90.3029 10.6065C90.5359 10.4134 90.7092 10.1548 90.8228 9.83097C90.9393 9.5071 90.9975 9.14631 90.9975 8.74858C90.9975 8.34801 90.9393 7.9858 90.8228 7.66193C90.7092 7.33523 90.5359 7.07528 90.3029 6.8821C90.07 6.68892 89.7802 6.59233 89.4336 6.59233C89.0785 6.59233 88.783 6.68892 88.5472 6.8821C88.3143 7.07528 88.1396 7.33523 88.0231 7.66193C87.9094 7.9858 87.8526 8.34801 87.8526 8.74858C87.8526 9.14631 87.9094 9.5071 88.0231 9.83097C88.1396 10.1548 88.3143 10.4134 88.5472 10.6065C88.783 10.7969 89.0785 10.892 89.4336 10.892ZM99.4947 5.45455L97.1637 12H95.4592L93.1282 5.45455H94.7731L96.2773 10.3168H96.3455L97.854 5.45455H99.4947ZM102.258 12.1321C101.843 12.1321 101.47 12.0582 101.137 11.9105C100.808 11.7599 100.547 11.5384 100.353 11.2457C100.163 10.9531 100.068 10.5923 100.068 10.1634C100.068 9.79403 100.136 9.48864 100.272 9.24716C100.409 9.00568 100.595 8.8125 100.831 8.66761C101.066 8.52273 101.332 8.41335 101.627 8.33949C101.926 8.26278 102.234 8.20739 102.552 8.1733C102.936 8.13352 103.247 8.09801 103.485 8.06676C103.724 8.03267 103.897 7.98153 104.005 7.91335C104.116 7.84233 104.172 7.73295 104.172 7.58523V7.55966C104.172 7.23864 104.076 6.99006 103.886 6.81392C103.696 6.63778 103.422 6.54972 103.064 6.54972C102.686 6.54972 102.386 6.6321 102.164 6.79688C101.946 6.96165 101.798 7.15625 101.721 7.38068L100.281 7.17614C100.395 6.77841 100.582 6.44602 100.843 6.17898C101.105 5.90909 101.424 5.70739 101.802 5.57386C102.18 5.4375 102.598 5.36932 103.055 5.36932C103.37 5.36932 103.684 5.40625 103.997 5.48011C104.309 5.55398 104.595 5.67614 104.853 5.84659C105.112 6.0142 105.319 6.2429 105.475 6.53267C105.635 6.82244 105.714 7.18466 105.714 7.61932V12H104.231V11.1009H104.18C104.086 11.2827 103.954 11.4531 103.784 11.6122C103.616 11.7685 103.404 11.8949 103.149 11.9915C102.896 12.0852 102.599 12.1321 102.258 12.1321ZM102.659 10.9986C102.968 10.9986 103.237 10.9375 103.464 10.8153C103.691 10.6903 103.866 10.5256 103.988 10.321C104.113 10.1165 104.176 9.89347 104.176 9.65199V8.88068C104.127 8.92045 104.045 8.95739 103.929 8.99148C103.815 9.02557 103.687 9.0554 103.545 9.08097C103.403 9.10653 103.262 9.12926 103.123 9.14915C102.984 9.16903 102.863 9.18608 102.761 9.20028C102.531 9.23153 102.325 9.28267 102.143 9.35369C101.961 9.42472 101.818 9.52415 101.713 9.65199C101.608 9.77699 101.555 9.93892 101.555 10.1378C101.555 10.4219 101.659 10.6364 101.866 10.7812C102.074 10.9261 102.338 10.9986 102.659 10.9986Z" fill="white"/>
</mask>
<g mask="url(#mask0_44_15)">
<rect x="42" y="-1" width="67" height="20" fill="url(#paint0_linear_44_15)"/>
</g>
<defs>
<linearGradient id="paint0_linear_44_15" x1="45" y1="1" x2="109" y2="16" gradientUnits="userSpaceOnUse">
<stop stop-color="#D9D9D9"/>
<stop offset="0.0001" stop-color="#E25505"/>
<stop offset="1" stop-color="#CA29F2"/>
</linearGradient>
</defs>
</svg>
