<svg width="63" height="25" viewBox="0 0 63 25" fill="none" xmlns="http://www.w3.org/2000/svg">
<path d="M9.95881 12V3.27273H13.0696C13.7486 3.27273 14.3111 3.39631 14.7571 3.64347C15.2031 3.89062 15.5369 4.22869 15.7585 4.65767C15.9801 5.08381 16.0909 5.56392 16.0909 6.09801C16.0909 6.63494 15.9787 7.1179 15.7543 7.54688C15.5327 7.97301 15.1974 8.31108 14.7486 8.56108C14.3026 8.80824 13.7415 8.93182 13.0653 8.93182H10.9261V7.81534H12.946C13.375 7.81534 13.723 7.74148 13.9901 7.59375C14.2571 7.44318 14.4531 7.23864 14.5781 6.98011C14.7031 6.72159 14.7656 6.42756 14.7656 6.09801C14.7656 5.76847 14.7031 5.47585 14.5781 5.22017C14.4531 4.96449 14.2557 4.7642 13.9858 4.61932C13.7188 4.47443 13.3665 4.40199 12.929 4.40199H11.2756V12H9.95881ZM17.5323 12V5.45455H18.7638V6.49432H18.832C18.9513 6.14205 19.1616 5.86506 19.4627 5.66335C19.7667 5.45881 20.1104 5.35653 20.494 5.35653C20.5735 5.35653 20.6673 5.35937 20.7752 5.36506C20.886 5.37074 20.9727 5.37784 21.0352 5.38636V6.60511C20.984 6.59091 20.8931 6.57528 20.7624 6.55824C20.6317 6.53835 20.5011 6.52841 20.3704 6.52841C20.0692 6.52841 19.8008 6.59233 19.565 6.72017C19.332 6.84517 19.1474 7.01989 19.011 7.24432C18.8746 7.46591 18.8065 7.71875 18.8065 8.00284V12H17.5323ZM24.6605 12.1321C24.0469 12.1321 23.5114 11.9915 23.054 11.7102C22.5966 11.429 22.2415 11.0355 21.9886 10.5298C21.7358 10.0241 21.6094 9.43324 21.6094 8.7571C21.6094 8.07812 21.7358 7.48437 21.9886 6.97585C22.2415 6.46733 22.5966 6.07244 23.054 5.79119C23.5114 5.50994 24.0469 5.36932 24.6605 5.36932C25.2741 5.36932 25.8097 5.50994 26.267 5.79119C26.7244 6.07244 27.0795 6.46733 27.3324 6.97585C27.5852 7.48437 27.7116 8.07812 27.7116 8.7571C27.7116 9.43324 27.5852 10.0241 27.3324 10.5298C27.0795 11.0355 26.7244 11.429 26.267 11.7102C25.8097 11.9915 25.2741 12.1321 24.6605 12.1321ZM24.6648 11.0625C25.0625 11.0625 25.392 10.9574 25.6534 10.7472C25.9148 10.5369 26.108 10.2571 26.233 9.90767C26.3608 9.55824 26.4247 9.1733 26.4247 8.75284C26.4247 8.33523 26.3608 7.9517 26.233 7.60227C26.108 7.25 25.9148 6.96733 25.6534 6.75426C25.392 6.54119 25.0625 6.43466 24.6648 6.43466C24.2642 6.43466 23.9318 6.54119 23.6676 6.75426C23.4063 6.96733 23.2116 7.25 23.0838 7.60227C22.9588 7.9517 22.8963 8.33523 22.8963 8.75284C22.8963 9.1733 22.9588 9.55824 23.0838 9.90767C23.2116 10.2571 23.4063 10.5369 23.6676 10.7472C23.9318 10.9574 24.2642 11.0625 24.6648 11.0625ZM29.1339 5.45455H30.408V12.4261C30.408 12.8636 30.3285 13.233 30.1694 13.5341C30.0131 13.8352 29.7802 14.0639 29.4705 14.2202C29.1637 14.3764 28.7844 14.4545 28.3327 14.4545C28.2873 14.4545 28.2447 14.4545 28.2049 14.4545C28.1623 14.4545 28.1183 14.4531 28.0728 14.4503V13.3551C28.1126 13.3551 28.1481 13.3551 28.1793 13.3551C28.2077 13.3551 28.2404 13.3551 28.2773 13.3551C28.5785 13.3551 28.7958 13.2741 28.9293 13.1122C29.0657 12.9531 29.1339 12.7216 29.1339 12.4176V5.45455ZM29.7646 4.4446C29.543 4.4446 29.3526 4.37074 29.1935 4.22301C29.0373 4.07244 28.9592 3.89347 28.9592 3.68608C28.9592 3.47585 29.0373 3.29687 29.1935 3.14915C29.3526 2.99858 29.543 2.9233 29.7646 2.9233C29.9862 2.9233 30.1751 2.99858 30.3313 3.14915C30.4904 3.29687 30.57 3.47585 30.57 3.68608C30.57 3.89347 30.4904 4.07244 30.3313 4.22301C30.1751 4.37074 29.9862 4.4446 29.7646 4.4446ZM34.9432 12.1321C34.2983 12.1321 33.7429 11.9943 33.277 11.7188C32.8139 11.4403 32.456 11.0497 32.2031 10.5469C31.9531 10.0412 31.8281 9.44886 31.8281 8.76989C31.8281 8.09943 31.9531 7.50852 32.2031 6.99716C32.456 6.4858 32.8082 6.08665 33.2599 5.79972C33.7145 5.51278 34.2457 5.36932 34.8537 5.36932C35.223 5.36932 35.581 5.4304 35.9276 5.55256C36.2741 5.67472 36.5852 5.86648 36.8608 6.12784C37.1364 6.3892 37.3537 6.72869 37.5128 7.14631C37.6719 7.56108 37.7514 8.06534 37.7514 8.65909V9.1108H32.5483V8.15625H36.5028C36.5028 7.82102 36.4347 7.52415 36.2983 7.26562C36.1619 7.00426 35.9702 6.7983 35.723 6.64773C35.4787 6.49716 35.1918 6.42188 34.8622 6.42188C34.5043 6.42188 34.1918 6.50994 33.9247 6.68608C33.6605 6.85937 33.456 7.08665 33.3111 7.3679C33.169 7.64631 33.098 7.94886 33.098 8.27557V9.02131C33.098 9.45881 33.1747 9.83097 33.3281 10.1378C33.4844 10.4446 33.7017 10.679 33.9801 10.8409C34.2585 11 34.5838 11.0795 34.956 11.0795C35.1974 11.0795 35.4176 11.0455 35.6165 10.9773C35.8153 10.9062 35.9872 10.8011 36.1321 10.6619C36.277 10.5227 36.3878 10.3509 36.4645 10.1463L37.6705 10.3636C37.5739 10.7187 37.4006 11.0298 37.1506 11.2969C36.9034 11.5611 36.5923 11.767 36.2173 11.9148C35.8452 12.0597 35.4205 12.1321 34.9432 12.1321ZM41.9222 12.1321C41.2887 12.1321 40.7433 11.9886 40.2859 11.7017C39.8313 11.4119 39.4819 11.0128 39.2376 10.5043C38.9933 9.99574 38.8711 9.41335 38.8711 8.7571C38.8711 8.09233 38.9961 7.50568 39.2461 6.99716C39.4961 6.4858 39.8484 6.08665 40.3029 5.79972C40.7575 5.51278 41.293 5.36932 41.9094 5.36932C42.4066 5.36932 42.8498 5.46165 43.239 5.64631C43.6282 5.82812 43.9421 6.08381 44.1808 6.41335C44.4222 6.7429 44.5657 7.12784 44.6112 7.56818H43.3711C43.3029 7.26136 43.1467 6.99716 42.9023 6.77557C42.6609 6.55398 42.337 6.44318 41.9308 6.44318C41.5756 6.44318 41.2646 6.53693 40.9975 6.72443C40.7333 6.90909 40.5273 7.1733 40.3796 7.51705C40.2319 7.85795 40.158 8.26136 40.158 8.72727C40.158 9.20455 40.2305 9.61648 40.3754 9.96307C40.5202 10.3097 40.7248 10.5781 40.989 10.7685C41.256 10.9588 41.57 11.054 41.9308 11.054C42.1722 11.054 42.391 11.0099 42.587 10.9219C42.7859 10.831 42.9521 10.7017 43.0856 10.5341C43.2219 10.3665 43.3171 10.1648 43.3711 9.92898H44.6112C44.5657 10.3523 44.4279 10.7301 44.1978 11.0625C43.9677 11.3949 43.6594 11.6562 43.2731 11.8466C42.8896 12.0369 42.4393 12.1321 41.9222 12.1321ZM49.0291 5.45455V6.47727H45.4538V5.45455H49.0291ZM46.4126 3.88636H47.6868V10.0781C47.6868 10.3253 47.7237 10.5114 47.7976 10.6364C47.8714 10.7585 47.9666 10.8423 48.0831 10.8878C48.2024 10.9304 48.3317 10.9517 48.4709 10.9517C48.5732 10.9517 48.6626 10.9446 48.7393 10.9304C48.8161 10.9162 48.8757 10.9048 48.9183 10.8963L49.1484 11.9489C49.0746 11.9773 48.9695 12.0057 48.8331 12.0341C48.6967 12.0653 48.5263 12.0824 48.3217 12.0852C47.9865 12.0909 47.674 12.0312 47.3842 11.9062C47.0945 11.7812 46.8601 11.5881 46.6811 11.3267C46.5021 11.0653 46.4126 10.7372 46.4126 10.3423V3.88636Z" fill="white"/>
<mask id="mask0_44_15" style="mask-type:alpha" maskUnits="userSpaceOnUse" x="0" y="13" width="62" height="12">
<path d="M5.60369 15.6719C5.56392 15.2997 5.39631 15.0099 5.10085 14.8026C4.80824 14.5952 4.42756 14.4915 3.95881 14.4915C3.62926 14.4915 3.34659 14.5412 3.1108 14.6406C2.875 14.7401 2.6946 14.875 2.5696 15.0455C2.4446 15.2159 2.38068 15.4105 2.37784 15.6293C2.37784 15.8111 2.41903 15.9687 2.50142 16.1023C2.58665 16.2358 2.7017 16.3494 2.84659 16.4432C2.99148 16.5341 3.15199 16.6108 3.32812 16.6733C3.50426 16.7358 3.68182 16.7884 3.8608 16.831L4.67898 17.0355C5.00852 17.1122 5.32528 17.2159 5.62926 17.3466C5.93608 17.4773 6.21023 17.642 6.4517 17.8409C6.69602 18.0398 6.8892 18.2798 7.03125 18.5611C7.1733 18.8423 7.24432 19.1719 7.24432 19.5497C7.24432 20.0611 7.11364 20.5114 6.85227 20.9006C6.59091 21.2869 6.21307 21.5895 5.71875 21.8082C5.22727 22.0241 4.6321 22.1321 3.93324 22.1321C3.25426 22.1321 2.66477 22.027 2.16477 21.8168C1.66761 21.6065 1.27841 21.2997 0.997159 20.8963C0.71875 20.4929 0.568182 20.0014 0.545455 19.4219H2.10085C2.12358 19.7259 2.21733 19.9787 2.3821 20.1804C2.54688 20.3821 2.76136 20.5327 3.02557 20.6321C3.29261 20.7315 3.59091 20.7812 3.92045 20.7812C4.2642 20.7812 4.56534 20.7301 4.82386 20.6278C5.08523 20.5227 5.28977 20.3778 5.4375 20.1932C5.58523 20.0057 5.66051 19.7869 5.66335 19.5369C5.66051 19.3097 5.59375 19.1222 5.46307 18.9744C5.33239 18.8239 5.14915 18.6989 4.91335 18.5994C4.6804 18.4972 4.40767 18.4062 4.09517 18.3267L3.10227 18.071C2.38352 17.8864 1.81534 17.6065 1.39773 17.2315C0.982955 16.8537 0.775568 16.3523 0.775568 15.7273C0.775568 15.2131 0.914773 14.7628 1.19318 14.3764C1.47443 13.9901 1.85653 13.6903 2.33949 13.4773C2.82244 13.2614 3.36932 13.1534 3.98011 13.1534C4.59943 13.1534 5.14205 13.2614 5.60795 13.4773C6.0767 13.6903 6.4446 13.9872 6.71165 14.3679C6.97869 14.7457 7.11648 15.1804 7.125 15.6719H5.60369ZM12.7575 19.2472V15.4545H14.3001V22H12.8043V20.8366H12.7362C12.5884 21.2031 12.3455 21.5028 12.0075 21.7358C11.6722 21.9687 11.2589 22.0852 10.7674 22.0852C10.3384 22.0852 9.95916 21.9901 9.62962 21.7997C9.30291 21.6065 9.04723 21.3267 8.86257 20.9602C8.67791 20.5909 8.58558 20.1449 8.58558 19.6222V15.4545H10.1282V19.3835C10.1282 19.7983 10.2418 20.1278 10.4691 20.3722C10.6964 20.6165 10.9947 20.7386 11.364 20.7386C11.5913 20.7386 11.8114 20.6832 12.0245 20.5724C12.2376 20.4616 12.4123 20.2969 12.5487 20.0781C12.6879 19.8565 12.7575 19.5795 12.7575 19.2472ZM15.8864 24.4545V15.4545H17.4034V16.5369H17.4929C17.5724 16.3778 17.6847 16.2088 17.8295 16.0298C17.9744 15.848 18.1705 15.6932 18.4176 15.5653C18.6648 15.4347 18.9801 15.3693 19.3636 15.3693C19.8693 15.3693 20.3253 15.4986 20.7315 15.7571C21.1406 16.0128 21.4645 16.392 21.7031 16.8949C21.9446 17.3949 22.0653 18.0085 22.0653 18.7358C22.0653 19.4545 21.9474 20.0653 21.7116 20.5682C21.4759 21.071 21.1548 21.4545 20.7486 21.7188C20.3423 21.983 19.8821 22.1151 19.3679 22.1151C18.9929 22.1151 18.6818 22.0526 18.4347 21.9276C18.1875 21.8026 17.9886 21.652 17.8381 21.4759C17.6903 21.2969 17.5753 21.1278 17.4929 20.9688H17.429V24.4545H15.8864ZM17.3991 18.7273C17.3991 19.1506 17.4588 19.5213 17.5781 19.8395C17.7003 20.1577 17.875 20.4062 18.1023 20.5852C18.3324 20.7614 18.6108 20.8494 18.9375 20.8494C19.2784 20.8494 19.5639 20.7585 19.794 20.5767C20.0241 20.392 20.1974 20.1406 20.3139 19.8224C20.4332 19.5014 20.4929 19.1364 20.4929 18.7273C20.4929 18.321 20.4347 17.9602 20.3182 17.6449C20.2017 17.3295 20.0284 17.0824 19.7983 16.9034C19.5682 16.7244 19.2812 16.6349 18.9375 16.6349C18.608 16.6349 18.3281 16.7216 18.098 16.8949C17.8679 17.0682 17.6932 17.3111 17.5739 17.6236C17.4574 17.9361 17.3991 18.304 17.3991 18.7273ZM26.2841 22.1278C25.6278 22.1278 25.0611 21.9915 24.5838 21.7188C24.1094 21.4432 23.7443 21.054 23.4886 20.5511C23.233 20.0455 23.1051 19.4503 23.1051 18.7656C23.1051 18.0923 23.233 17.5014 23.4886 16.9929C23.7472 16.4815 24.108 16.0838 24.571 15.7997C25.0341 15.5128 25.5781 15.3693 26.2031 15.3693C26.6065 15.3693 26.9872 15.4347 27.3452 15.5653C27.706 15.6932 28.0241 15.892 28.2997 16.1619C28.5781 16.4318 28.7969 16.7756 28.956 17.1932C29.1151 17.608 29.1946 18.1023 29.1946 18.6761V19.1491H23.8295V18.1094H27.7159C27.7131 17.8139 27.6491 17.5511 27.5241 17.321C27.3991 17.0881 27.2244 16.9048 27 16.7713C26.7784 16.6378 26.5199 16.571 26.2244 16.571C25.9091 16.571 25.6321 16.6477 25.3935 16.8011C25.1548 16.9517 24.9688 17.1506 24.8352 17.3977C24.7045 17.642 24.6378 17.9105 24.6349 18.2031V19.1108C24.6349 19.4915 24.7045 19.8182 24.8438 20.0909C24.983 20.3608 25.1776 20.5682 25.4276 20.7131C25.6776 20.8551 25.9702 20.9261 26.3054 20.9261C26.5298 20.9261 26.733 20.8949 26.9148 20.8324C27.0966 20.767 27.2543 20.6719 27.3878 20.5469C27.5213 20.4219 27.6222 20.267 27.6903 20.0824L29.1307 20.2443C29.0398 20.625 28.8665 20.9574 28.6108 21.2415C28.358 21.5227 28.0341 21.7415 27.6392 21.8977C27.2443 22.0511 26.7926 22.1278 26.2841 22.1278ZM30.4996 22V15.4545H31.9954V16.5455H32.0636C32.1829 16.1676 32.3874 15.8764 32.6772 15.6719C32.9698 15.4645 33.3036 15.3608 33.6786 15.3608C33.7638 15.3608 33.859 15.3651 33.9641 15.3736C34.0721 15.3793 34.1616 15.3892 34.2326 15.4034V16.8224C34.1673 16.7997 34.0636 16.7798 33.9215 16.7628C33.7823 16.7429 33.6474 16.733 33.5167 16.733C33.2354 16.733 32.9826 16.794 32.7582 16.9162C32.5366 17.0355 32.3619 17.2017 32.234 17.4148C32.1062 17.6278 32.0423 17.8736 32.0423 18.152V22H30.4996ZM36.8001 18.1648V22H35.2575V15.4545H36.7319V16.5668H36.8086C36.9592 16.2003 37.1992 15.9091 37.5288 15.6932C37.8612 15.4773 38.2717 15.3693 38.7603 15.3693C39.212 15.3693 39.6055 15.4659 39.9407 15.6591C40.2788 15.8523 40.5401 16.1321 40.7248 16.4986C40.9123 16.8651 41.0046 17.3097 41.0018 17.8324V22H39.4592V18.071C39.4592 17.6335 39.3455 17.2912 39.1183 17.044C38.8938 16.7969 38.5827 16.6733 38.185 16.6733C37.9151 16.6733 37.6751 16.733 37.4648 16.8523C37.2575 16.9687 37.0941 17.1378 36.9748 17.3594C36.8583 17.581 36.8001 17.8494 36.8001 18.1648ZM45.4251 22.1278C44.7859 22.1278 44.2319 21.9872 43.7631 21.706C43.2944 21.4247 42.9308 21.0312 42.6722 20.5256C42.4165 20.0199 42.2887 19.429 42.2887 18.7528C42.2887 18.0767 42.4165 17.4844 42.6722 16.9759C42.9308 16.4673 43.2944 16.0724 43.7631 15.7912C44.2319 15.5099 44.7859 15.3693 45.4251 15.3693C46.0643 15.3693 46.6183 15.5099 47.087 15.7912C47.5558 16.0724 47.918 16.4673 48.1737 16.9759C48.4322 17.4844 48.5614 18.0767 48.5614 18.7528C48.5614 19.429 48.4322 20.0199 48.1737 20.5256C47.918 21.0312 47.5558 21.4247 47.087 21.706C46.6183 21.9872 46.0643 22.1278 45.4251 22.1278ZM45.4336 20.892C45.7802 20.892 46.07 20.7969 46.3029 20.6065C46.5359 20.4134 46.7092 20.1548 46.8228 19.831C46.9393 19.5071 46.9975 19.1463 46.9975 18.7486C46.9975 18.348 46.9393 17.9858 46.8228 17.6619C46.7092 17.3352 46.5359 17.0753 46.3029 16.8821C46.07 16.6889 45.7802 16.5923 45.4336 16.5923C45.0785 16.5923 44.783 16.6889 44.5472 16.8821C44.3143 17.0753 44.1396 17.3352 44.0231 17.6619C43.9094 17.9858 43.8526 18.348 43.8526 18.7486C43.8526 19.1463 43.9094 19.5071 44.0231 19.831C44.1396 20.1548 44.3143 20.4134 44.5472 20.6065C44.783 20.7969 45.0785 20.892 45.4336 20.892ZM55.4947 15.4545L53.1637 22H51.4592L49.1282 15.4545H50.7731L52.2773 20.3168H52.3455L53.854 15.4545H55.4947ZM58.2582 22.1321C57.8434 22.1321 57.4698 22.0582 57.1374 21.9105C56.8079 21.7599 56.5465 21.5384 56.3533 21.2457C56.163 20.9531 56.0678 20.5923 56.0678 20.1634C56.0678 19.794 56.136 19.4886 56.2724 19.2472C56.4087 19.0057 56.5948 18.8125 56.8306 18.6676C57.0664 18.5227 57.332 18.4134 57.6275 18.3395C57.9258 18.2628 58.234 18.2074 58.5522 18.1733C58.9357 18.1335 59.2468 18.098 59.4854 18.0668C59.7241 18.0327 59.8974 17.9815 60.0053 17.9134C60.1161 17.8423 60.1715 17.733 60.1715 17.5852V17.5597C60.1715 17.2386 60.0763 16.9901 59.886 16.8139C59.6957 16.6378 59.4215 16.5497 59.0636 16.5497C58.6857 16.5497 58.386 16.6321 58.1644 16.7969C57.9457 16.9616 57.7979 17.1562 57.7212 17.3807L56.2809 17.1761C56.3945 16.7784 56.582 16.446 56.8434 16.179C57.1048 15.9091 57.4244 15.7074 57.8022 15.5739C58.18 15.4375 58.5977 15.3693 59.055 15.3693C59.3704 15.3693 59.6843 15.4062 59.9968 15.4801C60.3093 15.554 60.5948 15.6761 60.8533 15.8466C61.1119 16.0142 61.3192 16.2429 61.4755 16.5327C61.6346 16.8224 61.7141 17.1847 61.7141 17.6193V22H60.2312V21.1009H60.18C60.0863 21.2827 59.9542 21.4531 59.7837 21.6122C59.6161 21.7685 59.4045 21.8949 59.1488 21.9915C58.896 22.0852 58.5991 22.1321 58.2582 22.1321ZM58.6587 20.9986C58.9684 20.9986 59.2369 20.9375 59.4641 20.8153C59.6914 20.6903 59.8661 20.5256 59.9883 20.321C60.1133 20.1165 60.1758 19.8935 60.1758 19.652V18.8807C60.1275 18.9205 60.0451 18.9574 59.9286 18.9915C59.815 19.0256 59.6871 19.0554 59.5451 19.081C59.4031 19.1065 59.2624 19.1293 59.1232 19.1491C58.984 19.169 58.8633 19.1861 58.761 19.2003C58.5309 19.2315 58.3249 19.2827 58.1431 19.3537C57.9613 19.4247 57.8178 19.5241 57.7127 19.652C57.6076 19.777 57.555 19.9389 57.555 20.1378C57.555 20.4219 57.6587 20.6364 57.8661 20.7812C58.0735 20.9261 58.3377 20.9986 58.6587 20.9986Z" fill="white"/>
</mask>
<g mask="url(#mask0_44_15)">
<rect x="-2" y="9" width="67" height="20" fill="url(#paint0_linear_44_15)"/>
</g>
<defs>
<linearGradient id="paint0_linear_44_15" x1="0.999999" y1="11" x2="65" y2="26" gradientUnits="userSpaceOnUse">
<stop stop-color="#D9D9D9"/>
<stop offset="0.0001" stop-color="#E25505"/>
<stop offset="1" stop-color="#CA29F2"/>
</linearGradient>
</defs>
</svg>
