<svg width="63" height="15" viewBox="0 0 63 15" fill="none" xmlns="http://www.w3.org/2000/svg">
<mask id="mask0_57_11" style="mask-type:alpha" maskUnits="userSpaceOnUse" x="0" y="3" width="62" height="12">
<path d="M5.60369 5.67188C5.56392 5.29972 5.39631 5.00994 5.10085 4.80256C4.80824 4.59517 4.42756 4.49148 3.95881 4.49148C3.62926 4.49148 3.34659 4.54119 3.1108 4.64062C2.875 4.74006 2.6946 4.875 2.5696 5.04545C2.4446 5.21591 2.38068 5.41051 2.37784 5.62926C2.37784 5.81108 2.41903 5.96875 2.50142 6.10227C2.58665 6.2358 2.7017 6.34943 2.84659 6.44318C2.99148 6.53409 3.15199 6.6108 3.32812 6.6733C3.50426 6.7358 3.68182 6.78835 3.8608 6.83097L4.67898 7.03551C5.00852 7.11222 5.32528 7.21591 5.62926 7.34659C5.93608 7.47727 6.21023 7.64205 6.4517 7.84091C6.69602 8.03977 6.8892 8.27983 7.03125 8.56108C7.1733 8.84233 7.24432 9.17187 7.24432 9.54972C7.24432 10.0611 7.11364 10.5114 6.85227 10.9006C6.59091 11.2869 6.21307 11.5895 5.71875 11.8082C5.22727 12.0241 4.6321 12.1321 3.93324 12.1321C3.25426 12.1321 2.66477 12.027 2.16477 11.8168C1.66761 11.6065 1.27841 11.2997 0.997159 10.8963C0.71875 10.4929 0.568182 10.0014 0.545455 9.42188H2.10085C2.12358 9.72585 2.21733 9.97869 2.3821 10.1804C2.54688 10.3821 2.76136 10.5327 3.02557 10.6321C3.29261 10.7315 3.59091 10.7812 3.92045 10.7812C4.2642 10.7812 4.56534 10.7301 4.82386 10.6278C5.08523 10.5227 5.28977 10.3778 5.4375 10.1932C5.58523 10.0057 5.66051 9.78693 5.66335 9.53693C5.66051 9.30966 5.59375 9.12216 5.46307 8.97443C5.33239 8.82386 5.14915 8.69886 4.91335 8.59943C4.6804 8.49716 4.40767 8.40625 4.09517 8.3267L3.10227 8.07102C2.38352 7.88636 1.81534 7.60653 1.39773 7.23153C0.982955 6.85369 0.775568 6.35227 0.775568 5.72727C0.775568 5.21307 0.914773 4.76278 1.19318 4.37642C1.47443 3.99006 1.85653 3.69034 2.33949 3.47727C2.82244 3.26136 3.36932 3.15341 3.98011 3.15341C4.59943 3.15341 5.14205 3.26136 5.60795 3.47727C6.0767 3.69034 6.4446 3.98722 6.71165 4.3679C6.97869 4.74574 7.11648 5.1804 7.125 5.67188H5.60369ZM12.7575 9.24716V5.45455H14.3001V12H12.8043V10.8366H12.7362C12.5884 11.2031 12.3455 11.5028 12.0075 11.7358C11.6722 11.9687 11.2589 12.0852 10.7674 12.0852C10.3384 12.0852 9.95916 11.9901 9.62962 11.7997C9.30291 11.6065 9.04723 11.3267 8.86257 10.9602C8.67791 10.5909 8.58558 10.1449 8.58558 9.62216V5.45455H10.1282V9.38352C10.1282 9.7983 10.2418 10.1278 10.4691 10.3722C10.6964 10.6165 10.9947 10.7386 11.364 10.7386C11.5913 10.7386 11.8114 10.6832 12.0245 10.5724C12.2376 10.4616 12.4123 10.2969 12.5487 10.0781C12.6879 9.85653 12.7575 9.57955 12.7575 9.24716ZM15.8864 14.4545V5.45455H17.4034V6.53693H17.4929C17.5724 6.37784 17.6847 6.20881 17.8295 6.02983C17.9744 5.84801 18.1705 5.69318 18.4176 5.56534C18.6648 5.43466 18.9801 5.36932 19.3636 5.36932C19.8693 5.36932 20.3253 5.49858 20.7315 5.7571C21.1406 6.01278 21.4645 6.39205 21.7031 6.89489C21.9446 7.39489 22.0653 8.00852 22.0653 8.7358C22.0653 9.45455 21.9474 10.0653 21.7116 10.5682C21.4759 11.071 21.1548 11.4545 20.7486 11.7188C20.3423 11.983 19.8821 12.1151 19.3679 12.1151C18.9929 12.1151 18.6818 12.0526 18.4347 11.9276C18.1875 11.8026 17.9886 11.652 17.8381 11.4759C17.6903 11.2969 17.5753 11.1278 17.4929 10.9688H17.429V14.4545H15.8864ZM17.3991 8.72727C17.3991 9.15057 17.4588 9.52131 17.5781 9.83949C17.7003 10.1577 17.875 10.4062 18.1023 10.5852C18.3324 10.7614 18.6108 10.8494 18.9375 10.8494C19.2784 10.8494 19.5639 10.7585 19.794 10.5767C20.0241 10.392 20.1974 10.1406 20.3139 9.82244C20.4332 9.50142 20.4929 9.13636 20.4929 8.72727C20.4929 8.32102 20.4347 7.96023 20.3182 7.64489C20.2017 7.32955 20.0284 7.08239 19.7983 6.90341C19.5682 6.72443 19.2812 6.63494 18.9375 6.63494C18.608 6.63494 18.3281 6.72159 18.098 6.89489C17.8679 7.06818 17.6932 7.31108 17.5739 7.62358C17.4574 7.93608 17.3991 8.30398 17.3991 8.72727ZM26.2841 12.1278C25.6278 12.1278 25.0611 11.9915 24.5838 11.7188C24.1094 11.4432 23.7443 11.054 23.4886 10.5511C23.233 10.0455 23.1051 9.45028 23.1051 8.76562C23.1051 8.09233 23.233 7.50142 23.4886 6.9929C23.7472 6.48153 24.108 6.08381 24.571 5.79972C25.0341 5.51278 25.5781 5.36932 26.2031 5.36932C26.6065 5.36932 26.9872 5.43466 27.3452 5.56534C27.706 5.69318 28.0241 5.89205 28.2997 6.16193C28.5781 6.43182 28.7969 6.77557 28.956 7.19318C29.1151 7.60795 29.1946 8.10227 29.1946 8.67614V9.14915H23.8295V8.10938H27.7159C27.7131 7.81392 27.6491 7.55114 27.5241 7.32102C27.3991 7.08807 27.2244 6.90483 27 6.77131C26.7784 6.63778 26.5199 6.57102 26.2244 6.57102C25.9091 6.57102 25.6321 6.64773 25.3935 6.80114C25.1548 6.9517 24.9688 7.15057 24.8352 7.39773C24.7045 7.64205 24.6378 7.91051 24.6349 8.20312V9.1108C24.6349 9.49148 24.7045 9.81818 24.8438 10.0909C24.983 10.3608 25.1776 10.5682 25.4276 10.7131C25.6776 10.8551 25.9702 10.9261 26.3054 10.9261C26.5298 10.9261 26.733 10.8949 26.9148 10.8324C27.0966 10.767 27.2543 10.6719 27.3878 10.5469C27.5213 10.4219 27.6222 10.267 27.6903 10.0824L29.1307 10.2443C29.0398 10.625 28.8665 10.9574 28.6108 11.2415C28.358 11.5227 28.0341 11.7415 27.6392 11.8977C27.2443 12.0511 26.7926 12.1278 26.2841 12.1278ZM30.4996 12V5.45455H31.9954V6.54545H32.0636C32.1829 6.16761 32.3874 5.87642 32.6772 5.67188C32.9698 5.46449 33.3036 5.3608 33.6786 5.3608C33.7638 5.3608 33.859 5.36506 33.9641 5.37358C34.0721 5.37926 34.1616 5.3892 34.2326 5.40341V6.82244C34.1673 6.79972 34.0636 6.77983 33.9215 6.76278C33.7823 6.7429 33.6474 6.73295 33.5167 6.73295C33.2354 6.73295 32.9826 6.79403 32.7582 6.91619C32.5366 7.03551 32.3619 7.2017 32.234 7.41477C32.1062 7.62784 32.0423 7.87358 32.0423 8.15199V12H30.4996ZM36.8001 8.16477V12H35.2575V5.45455H36.7319V6.56676H36.8086C36.9592 6.20028 37.1992 5.90909 37.5288 5.69318C37.8612 5.47727 38.2717 5.36932 38.7603 5.36932C39.212 5.36932 39.6055 5.46591 39.9407 5.65909C40.2788 5.85227 40.5401 6.1321 40.7248 6.49858C40.9123 6.86506 41.0046 7.30966 41.0018 7.83239V12H39.4592V8.07102C39.4592 7.63352 39.3455 7.29119 39.1183 7.04403C38.8938 6.79687 38.5827 6.6733 38.185 6.6733C37.9151 6.6733 37.6751 6.73295 37.4648 6.85227C37.2575 6.96875 37.0941 7.13778 36.9748 7.35938C36.8583 7.58097 36.8001 7.84943 36.8001 8.16477ZM45.4251 12.1278C44.7859 12.1278 44.2319 11.9872 43.7631 11.706C43.2944 11.4247 42.9308 11.0312 42.6722 10.5256C42.4165 10.0199 42.2887 9.42898 42.2887 8.75284C42.2887 8.0767 42.4165 7.48437 42.6722 6.97585C42.9308 6.46733 43.2944 6.07244 43.7631 5.79119C44.2319 5.50994 44.7859 5.36932 45.4251 5.36932C46.0643 5.36932 46.6183 5.50994 47.087 5.79119C47.5558 6.07244 47.918 6.46733 48.1737 6.97585C48.4322 7.48437 48.5614 8.0767 48.5614 8.75284C48.5614 9.42898 48.4322 10.0199 48.1737 10.5256C47.918 11.0312 47.5558 11.4247 47.087 11.706C46.6183 11.9872 46.0643 12.1278 45.4251 12.1278ZM45.4336 10.892C45.7802 10.892 46.07 10.7969 46.3029 10.6065C46.5359 10.4134 46.7092 10.1548 46.8228 9.83097C46.9393 9.5071 46.9975 9.14631 46.9975 8.74858C46.9975 8.34801 46.9393 7.9858 46.8228 7.66193C46.7092 7.33523 46.5359 7.07528 46.3029 6.8821C46.07 6.68892 45.7802 6.59233 45.4336 6.59233C45.0785 6.59233 44.783 6.68892 44.5472 6.8821C44.3143 7.07528 44.1396 7.33523 44.0231 7.66193C43.9094 7.9858 43.8526 8.34801 43.8526 8.74858C43.8526 9.14631 43.9094 9.5071 44.0231 9.83097C44.1396 10.1548 44.3143 10.4134 44.5472 10.6065C44.783 10.7969 45.0785 10.892 45.4336 10.892ZM55.4947 5.45455L53.1637 12H51.4592L49.1282 5.45455H50.7731L52.2773 10.3168H52.3455L53.854 5.45455H55.4947ZM58.2582 12.1321C57.8434 12.1321 57.4698 12.0582 57.1374 11.9105C56.8079 11.7599 56.5465 11.5384 56.3533 11.2457C56.163 10.9531 56.0678 10.5923 56.0678 10.1634C56.0678 9.79403 56.136 9.48864 56.2724 9.24716C56.4087 9.00568 56.5948 8.8125 56.8306 8.66761C57.0664 8.52273 57.332 8.41335 57.6275 8.33949C57.9258 8.26278 58.234 8.20739 58.5522 8.1733C58.9357 8.13352 59.2468 8.09801 59.4854 8.06676C59.7241 8.03267 59.8974 7.98153 60.0053 7.91335C60.1161 7.84233 60.1715 7.73295 60.1715 7.58523V7.55966C60.1715 7.23864 60.0763 6.99006 59.886 6.81392C59.6957 6.63778 59.4215 6.54972 59.0636 6.54972C58.6857 6.54972 58.386 6.6321 58.1644 6.79688C57.9457 6.96165 57.7979 7.15625 57.7212 7.38068L56.2809 7.17614C56.3945 6.77841 56.582 6.44602 56.8434 6.17898C57.1048 5.90909 57.4244 5.70739 57.8022 5.57386C58.18 5.4375 58.5977 5.36932 59.055 5.36932C59.3704 5.36932 59.6843 5.40625 59.9968 5.48011C60.3093 5.55398 60.5948 5.67614 60.8533 5.84659C61.1119 6.0142 61.3192 6.2429 61.4755 6.53267C61.6346 6.82244 61.7141 7.18466 61.7141 7.61932V12H60.2312V11.1009H60.18C60.0863 11.2827 59.9542 11.4531 59.7837 11.6122C59.6161 11.7685 59.4045 11.8949 59.1488 11.9915C58.896 12.0852 58.5991 12.1321 58.2582 12.1321ZM58.6587 10.9986C58.9684 10.9986 59.2369 10.9375 59.4641 10.8153C59.6914 10.6903 59.8661 10.5256 59.9883 10.321C60.1133 10.1165 60.1758 9.89347 60.1758 9.65199V8.88068C60.1275 8.92045 60.0451 8.95739 59.9286 8.99148C59.815 9.02557 59.6871 9.0554 59.5451 9.08097C59.4031 9.10653 59.2624 9.12926 59.1232 9.14915C58.984 9.16903 58.8633 9.18608 58.761 9.20028C58.5309 9.23153 58.3249 9.28267 58.1431 9.35369C57.9613 9.42472 57.8178 9.52415 57.7127 9.65199C57.6076 9.77699 57.555 9.93892 57.555 10.1378C57.555 10.4219 57.6587 10.6364 57.8661 10.7812C58.0735 10.9261 58.3377 10.9986 58.6587 10.9986Z" fill="white"/>
</mask>
<g mask="url(#mask0_57_11)">
<rect x="-2" y="-1" width="67" height="20" fill="url(#paint0_linear_57_11)"/>
</g>
<defs>
<linearGradient id="paint0_linear_57_11" x1="0.999999" y1="1" x2="65" y2="16" gradientUnits="userSpaceOnUse">
<stop stop-color="#D9D9D9"/>
<stop offset="0.0001" stop-color="#E25505"/>
<stop offset="1" stop-color="#CA29F2"/>
</linearGradient>
</defs>
</svg>
